<?xml version="1.0" standalone="no"?>
<!DOCTYPE svg PUBLIC "-//W3C//DTD SVG 20010904//EN"
 "http://www.w3.org/TR/2001/REC-SVG-20010904/DTD/svg10.dtd">
<svg version="1.0" xmlns="http://www.w3.org/2000/svg"
 width="246.000000pt" height="205.000000pt" viewBox="0 0 246.000000 205.000000"
 preserveAspectRatio="xMidYMid meet">

<g transform="translate(0.000000,205.000000) scale(0.100000,-0.100000)"
fill="#000000" stroke="none">
<path d="M756 1278 l-33 -73 371 -5 c327 -4 375 -7 403 -22 119 -66 118 -237
-2 -305 -39 -22 -45 -23 -407 -23 l-367 0 33 -72 32 -73 360 0 359 0 50 27
c68 35 122 92 154 158 35 75 37 191 3 265 -29 63 -92 129 -157 163 l-50 27
-358 3 -358 3 -33 -73z"/>
<path d="M1003 1063 c-8 -21 -28 -66 -43 -100 l-29 -63 83 0 c79 0 83 1 94 25
11 25 13 25 131 25 66 0 127 3 136 6 8 4 23 20 31 36 13 25 13 35 3 59 -6 17
-20 34 -30 39 -10 6 -95 10 -189 10 l-171 0 -16 -37z"/>
</g>
</svg>
